<mxfile host="app.diagrams.net" agent="Mozilla/5.0 (Windows NT 10.0; Win64; x64) AppleWebKit/537.36 (KHTML, like Gecko) Chrome/131.0.0.0 Safari/537.36" version="26.0.7">
  <diagram name="Page-1" id="baTKgD7WV5W7o3h4VleV">
    <mxGraphModel dx="875" dy="464" grid="1" gridSize="10" guides="1" tooltips="1" connect="1" arrows="1" fold="1" page="1" pageScale="1" pageWidth="827" pageHeight="1169" math="0" shadow="0">
      <root>
        <mxCell id="0" />
        <mxCell id="1" parent="0" />
        <mxCell id="8CBk1hH0SgQf0n0iD-SS-1" value="Manager" style="rounded=0;whiteSpace=wrap;html=1;" vertex="1" parent="1">
          <mxGeometry x="60" y="240" width="120" height="40" as="geometry" />
        </mxCell>
        <mxCell id="8CBk1hH0SgQf0n0iD-SS-2" value="4.1&lt;div&gt;Check Member&lt;/div&gt;" style="ellipse;whiteSpace=wrap;html=1;aspect=fixed;" vertex="1" parent="1">
          <mxGeometry x="320" y="60" width="80" height="80" as="geometry" />
        </mxCell>
        <mxCell id="8CBk1hH0SgQf0n0iD-SS-3" value="4.2&lt;div&gt;Availability Trainer&lt;/div&gt;" style="ellipse;whiteSpace=wrap;html=1;aspect=fixed;" vertex="1" parent="1">
          <mxGeometry x="310" y="218" width="80" height="80" as="geometry" />
        </mxCell>
        <mxCell id="8CBk1hH0SgQf0n0iD-SS-4" value="4.3&lt;div&gt;Assign&lt;/div&gt;&lt;div&gt;Trainer&lt;/div&gt;" style="ellipse;whiteSpace=wrap;html=1;aspect=fixed;" vertex="1" parent="1">
          <mxGeometry x="320" y="380" width="80" height="80" as="geometry" />
        </mxCell>
        <mxCell id="8CBk1hH0SgQf0n0iD-SS-5" value="Member" style="shape=partialRectangle;whiteSpace=wrap;html=1;left=0;right=0;fillColor=none;" vertex="1" parent="1">
          <mxGeometry x="560" y="80" width="120" height="40" as="geometry" />
        </mxCell>
        <mxCell id="8CBk1hH0SgQf0n0iD-SS-6" value="Trainer" style="shape=partialRectangle;whiteSpace=wrap;html=1;left=0;right=0;fillColor=none;" vertex="1" parent="1">
          <mxGeometry x="570" y="238" width="120" height="40" as="geometry" />
        </mxCell>
        <mxCell id="8CBk1hH0SgQf0n0iD-SS-7" value="TrainerAllocation" style="shape=partialRectangle;whiteSpace=wrap;html=1;left=0;right=0;fillColor=none;" vertex="1" parent="1">
          <mxGeometry x="570" y="400" width="120" height="40" as="geometry" />
        </mxCell>
        <mxCell id="8CBk1hH0SgQf0n0iD-SS-9" value="" style="endArrow=classic;html=1;rounded=0;exitX=0.5;exitY=0;exitDx=0;exitDy=0;entryX=0.05;entryY=0.34;entryDx=0;entryDy=0;entryPerimeter=0;" edge="1" parent="1" source="8CBk1hH0SgQf0n0iD-SS-1" target="8CBk1hH0SgQf0n0iD-SS-2">
          <mxGeometry width="50" height="50" relative="1" as="geometry">
            <mxPoint x="120" y="230" as="sourcePoint" />
            <mxPoint x="170" y="180" as="targetPoint" />
            <Array as="points">
              <mxPoint x="120" y="87" />
            </Array>
          </mxGeometry>
        </mxCell>
        <mxCell id="8CBk1hH0SgQf0n0iD-SS-10" value="" style="endArrow=classic;html=1;rounded=0;exitX=0.5;exitY=1;exitDx=0;exitDy=0;entryX=0;entryY=0.5;entryDx=0;entryDy=0;" edge="1" parent="1" source="8CBk1hH0SgQf0n0iD-SS-1" target="8CBk1hH0SgQf0n0iD-SS-4">
          <mxGeometry width="50" height="50" relative="1" as="geometry">
            <mxPoint x="210" y="480" as="sourcePoint" />
            <mxPoint x="260" y="430" as="targetPoint" />
            <Array as="points">
              <mxPoint x="120" y="420" />
            </Array>
          </mxGeometry>
        </mxCell>
        <mxCell id="8CBk1hH0SgQf0n0iD-SS-11" value="" style="endArrow=classic;html=1;rounded=0;exitX=1;exitY=0.25;exitDx=0;exitDy=0;" edge="1" parent="1" source="8CBk1hH0SgQf0n0iD-SS-1">
          <mxGeometry width="50" height="50" relative="1" as="geometry">
            <mxPoint x="310" y="370" as="sourcePoint" />
            <mxPoint x="310" y="250" as="targetPoint" />
          </mxGeometry>
        </mxCell>
        <mxCell id="8CBk1hH0SgQf0n0iD-SS-12" value="" style="endArrow=classic;html=1;rounded=0;exitX=0.995;exitY=0.353;exitDx=0;exitDy=0;exitPerimeter=0;entryX=0;entryY=0.25;entryDx=0;entryDy=0;" edge="1" parent="1" source="8CBk1hH0SgQf0n0iD-SS-2" target="8CBk1hH0SgQf0n0iD-SS-5">
          <mxGeometry width="50" height="50" relative="1" as="geometry">
            <mxPoint x="480" y="150" as="sourcePoint" />
            <mxPoint x="530" y="100" as="targetPoint" />
          </mxGeometry>
        </mxCell>
        <mxCell id="8CBk1hH0SgQf0n0iD-SS-13" value="" style="endArrow=classic;html=1;rounded=0;entryX=0.988;entryY=0.616;entryDx=0;entryDy=0;entryPerimeter=0;exitX=0;exitY=0.75;exitDx=0;exitDy=0;" edge="1" parent="1" source="8CBk1hH0SgQf0n0iD-SS-5" target="8CBk1hH0SgQf0n0iD-SS-2">
          <mxGeometry width="50" height="50" relative="1" as="geometry">
            <mxPoint x="400" y="180" as="sourcePoint" />
            <mxPoint x="450" y="130" as="targetPoint" />
          </mxGeometry>
        </mxCell>
        <mxCell id="8CBk1hH0SgQf0n0iD-SS-14" value="" style="endArrow=classic;html=1;rounded=0;exitX=0.97;exitY=0.351;exitDx=0;exitDy=0;exitPerimeter=0;entryX=0;entryY=0.25;entryDx=0;entryDy=0;" edge="1" parent="1" source="8CBk1hH0SgQf0n0iD-SS-3" target="8CBk1hH0SgQf0n0iD-SS-6">
          <mxGeometry width="50" height="50" relative="1" as="geometry">
            <mxPoint x="440" y="250" as="sourcePoint" />
            <mxPoint x="550" y="250" as="targetPoint" />
          </mxGeometry>
        </mxCell>
        <mxCell id="8CBk1hH0SgQf0n0iD-SS-15" value="" style="endArrow=classic;html=1;rounded=0;entryX=1;entryY=0.65;entryDx=0;entryDy=0;entryPerimeter=0;exitX=0;exitY=0.75;exitDx=0;exitDy=0;" edge="1" parent="1" source="8CBk1hH0SgQf0n0iD-SS-6" target="8CBk1hH0SgQf0n0iD-SS-3">
          <mxGeometry width="50" height="50" relative="1" as="geometry">
            <mxPoint x="540" y="280" as="sourcePoint" />
            <mxPoint x="500" y="260" as="targetPoint" />
          </mxGeometry>
        </mxCell>
        <mxCell id="8CBk1hH0SgQf0n0iD-SS-16" value="" style="endArrow=classic;html=1;rounded=0;exitX=1;exitY=0.5;exitDx=0;exitDy=0;entryX=0;entryY=0.5;entryDx=0;entryDy=0;" edge="1" parent="1" source="8CBk1hH0SgQf0n0iD-SS-4" target="8CBk1hH0SgQf0n0iD-SS-7">
          <mxGeometry width="50" height="50" relative="1" as="geometry">
            <mxPoint x="470" y="440" as="sourcePoint" />
            <mxPoint x="520" y="390" as="targetPoint" />
          </mxGeometry>
        </mxCell>
        <mxCell id="8CBk1hH0SgQf0n0iD-SS-18" value="" style="endArrow=classic;html=1;rounded=0;entryX=0.75;entryY=0;entryDx=0;entryDy=0;exitX=0;exitY=0.625;exitDx=0;exitDy=0;exitPerimeter=0;" edge="1" parent="1" source="8CBk1hH0SgQf0n0iD-SS-2" target="8CBk1hH0SgQf0n0iD-SS-1">
          <mxGeometry width="50" height="50" relative="1" as="geometry">
            <mxPoint x="290" y="210" as="sourcePoint" />
            <mxPoint x="340" y="160" as="targetPoint" />
            <Array as="points">
              <mxPoint x="150" y="110" />
            </Array>
          </mxGeometry>
        </mxCell>
        <mxCell id="8CBk1hH0SgQf0n0iD-SS-19" value="" style="endArrow=classic;html=1;rounded=0;entryX=1;entryY=0.75;entryDx=0;entryDy=0;exitX=0;exitY=0.65;exitDx=0;exitDy=0;exitPerimeter=0;" edge="1" parent="1" source="8CBk1hH0SgQf0n0iD-SS-3" target="8CBk1hH0SgQf0n0iD-SS-1">
          <mxGeometry width="50" height="50" relative="1" as="geometry">
            <mxPoint x="300" y="270" as="sourcePoint" />
            <mxPoint x="270" y="350" as="targetPoint" />
          </mxGeometry>
        </mxCell>
        <mxCell id="8CBk1hH0SgQf0n0iD-SS-20" value="Check&amp;nbsp; Valid Member" style="text;html=1;align=center;verticalAlign=middle;whiteSpace=wrap;rounded=0;" vertex="1" parent="1">
          <mxGeometry x="170" y="60" width="140" height="30" as="geometry" />
        </mxCell>
        <mxCell id="8CBk1hH0SgQf0n0iD-SS-21" value="Check Member" style="text;html=1;align=center;verticalAlign=middle;whiteSpace=wrap;rounded=0;" vertex="1" parent="1">
          <mxGeometry x="400" y="60" width="140" height="30" as="geometry" />
        </mxCell>
        <mxCell id="8CBk1hH0SgQf0n0iD-SS-22" value="Meber Details" style="text;html=1;align=center;verticalAlign=middle;whiteSpace=wrap;rounded=0;" vertex="1" parent="1">
          <mxGeometry x="400" y="110" width="140" height="30" as="geometry" />
        </mxCell>
        <mxCell id="8CBk1hH0SgQf0n0iD-SS-24" value="Member Details" style="text;html=1;align=center;verticalAlign=middle;whiteSpace=wrap;rounded=0;" vertex="1" parent="1">
          <mxGeometry x="160" y="110" width="140" height="30" as="geometry" />
        </mxCell>
        <mxCell id="8CBk1hH0SgQf0n0iD-SS-25" value="Trainer Availability" style="text;html=1;align=center;verticalAlign=middle;whiteSpace=wrap;rounded=0;" vertex="1" parent="1">
          <mxGeometry x="180" y="227" width="140" height="30" as="geometry" />
        </mxCell>
        <mxCell id="8CBk1hH0SgQf0n0iD-SS-26" value="Trainer Status" style="text;html=1;align=center;verticalAlign=middle;whiteSpace=wrap;rounded=0;" vertex="1" parent="1">
          <mxGeometry x="400" y="218" width="140" height="30" as="geometry" />
        </mxCell>
        <mxCell id="8CBk1hH0SgQf0n0iD-SS-27" value="Trainer Schedule" style="text;html=1;align=center;verticalAlign=middle;whiteSpace=wrap;rounded=0;" vertex="1" parent="1">
          <mxGeometry x="170" y="266" width="140" height="32" as="geometry" />
        </mxCell>
        <mxCell id="8CBk1hH0SgQf0n0iD-SS-28" value="Trainer Availability Time" style="text;html=1;align=center;verticalAlign=middle;whiteSpace=wrap;rounded=0;" vertex="1" parent="1">
          <mxGeometry x="414" y="266" width="140" height="32" as="geometry" />
        </mxCell>
        <mxCell id="8CBk1hH0SgQf0n0iD-SS-29" value="Assign Trainer" style="text;html=1;align=center;verticalAlign=middle;whiteSpace=wrap;rounded=0;" vertex="1" parent="1">
          <mxGeometry x="414" y="390" width="140" height="32" as="geometry" />
        </mxCell>
        <mxCell id="8CBk1hH0SgQf0n0iD-SS-30" value="Assign Trainer" style="text;html=1;align=center;verticalAlign=middle;whiteSpace=wrap;rounded=0;" vertex="1" parent="1">
          <mxGeometry x="150" y="390" width="140" height="32" as="geometry" />
        </mxCell>
      </root>
    </mxGraphModel>
  </diagram>
</mxfile>
